<svg xmlns="http://www.w3.org/2000/svg" xmlns:xlink="http://www.w3.org/1999/xlink" width="500" zoomAndPan="magnify" viewBox="0 0 375 374.999991" height="500" preserveAspectRatio="xMidYMid meet" version="1.0"><defs><filter x="0%" y="0%" width="100%" height="100%" id="1660d00b1e"><feColorMatrix values="0 0 0 0 1 0 0 0 0 1 0 0 0 0 1 0 0 0 1 0" color-interpolation-filters="sRGB"/></filter><g/><clipPath id="a528cf0a64"><path d="M 100 48.199219 L 279 48.199219 L 279 141 L 100 141 Z M 100 48.199219 " clip-rule="nonzero"/></clipPath><clipPath id="b36d815641"><path d="M 185 48.199219 L 193 48.199219 L 193 56 L 185 56 Z M 185 48.199219 " clip-rule="nonzero"/></clipPath><clipPath id="8086682e24"><path d="M 52.679688 112 L 319.679688 112 L 319.679688 300.949219 L 52.679688 300.949219 Z M 52.679688 112 " clip-rule="nonzero"/></clipPath><mask id="44ac7fbdb5"><g filter="url(#1660d00b1e)"><rect x="-37.5" width="450" fill="#000000" y="-37.499999" height="449.999989" fill-opacity="0.88"/></g></mask><clipPath id="26e2baf2f3"><path d="M 18 14 L 139 14 L 139 152 L 18 152 Z M 18 14 " clip-rule="nonzero"/></clipPath><clipPath id="48e6ac6e8f"><path d="M -4.101562 -2.617188 L 205.257812 27.375 L 184.304688 173.632812 L -25.058594 143.636719 Z M -4.101562 -2.617188 " clip-rule="nonzero"/></clipPath><clipPath id="9ea37d8859"><path d="M -4.101562 -2.617188 L 205.257812 27.375 L 184.304688 173.632812 L -25.058594 143.636719 Z M -4.101562 -2.617188 " clip-rule="nonzero"/></clipPath><clipPath id="8207031656"><path d="M 17 13 L 140 13 L 140 153 L 17 153 Z M 17 13 " clip-rule="nonzero"/></clipPath><clipPath id="e0f576562d"><path d="M -4.101562 -2.617188 L 205.257812 27.375 L 184.304688 173.632812 L -25.058594 143.636719 Z M -4.101562 -2.617188 " clip-rule="nonzero"/></clipPath><clipPath id="8982d21f37"><path d="M -4.101562 -2.617188 L 205.257812 27.375 L 184.304688 173.632812 L -25.058594 143.636719 Z M -4.101562 -2.617188 " clip-rule="nonzero"/></clipPath><clipPath id="47c254675e"><path d="M 45 20 L 144 20 L 144 145 L 45 145 Z M 45 20 " clip-rule="nonzero"/></clipPath><clipPath id="eff70c99e2"><path d="M -4.101562 -2.617188 L 205.257812 27.375 L 184.304688 173.632812 L -25.058594 143.636719 Z M -4.101562 -2.617188 " clip-rule="nonzero"/></clipPath><clipPath id="43fb9bc177"><path d="M -4.101562 -2.617188 L 205.257812 27.375 L 184.304688 173.632812 L -25.058594 143.636719 Z M -4.101562 -2.617188 " clip-rule="nonzero"/></clipPath><clipPath id="75d4f5eaff"><path d="M 44 19 L 145 19 L 145 146 L 44 146 Z M 44 19 " clip-rule="nonzero"/></clipPath><clipPath id="a839c097db"><path d="M -4.101562 -2.617188 L 205.257812 27.375 L 184.304688 173.632812 L -25.058594 143.636719 Z M -4.101562 -2.617188 " clip-rule="nonzero"/></clipPath><clipPath id="3511a6f86e"><path d="M -4.101562 -2.617188 L 205.257812 27.375 L 184.304688 173.632812 L -25.058594 143.636719 Z M -4.101562 -2.617188 " clip-rule="nonzero"/></clipPath><clipPath id="d85234b9bc"><path d="M 49 31 L 172 31 L 172 166 L 49 166 Z M 49 31 " clip-rule="nonzero"/></clipPath><clipPath id="a02cf989cc"><path d="M -4.101562 -2.617188 L 205.257812 27.375 L 184.304688 173.632812 L -25.058594 143.636719 Z M -4.101562 -2.617188 " clip-rule="nonzero"/></clipPath><clipPath id="482d04d935"><path d="M -4.101562 -2.617188 L 205.257812 27.375 L 184.304688 173.632812 L -25.058594 143.636719 Z M -4.101562 -2.617188 " clip-rule="nonzero"/></clipPath><clipPath id="6c0d71b4b2"><path d="M 47 29 L 174 29 L 174 168 L 47 168 Z M 47 29 " clip-rule="nonzero"/></clipPath><clipPath id="9dca5bc780"><path d="M -4.101562 -2.617188 L 205.257812 27.375 L 184.304688 173.632812 L -25.058594 143.636719 Z M -4.101562 -2.617188 " clip-rule="nonzero"/></clipPath><clipPath id="930cc371de"><path d="M -4.101562 -2.617188 L 205.257812 27.375 L 184.304688 173.632812 L -25.058594 143.636719 Z M -4.101562 -2.617188 " clip-rule="nonzero"/></clipPath><clipPath id="702c5349d3"><path d="M 56 39 L 165 39 L 165 158 L 56 158 Z M 56 39 " clip-rule="nonzero"/></clipPath><clipPath id="c8515c4a39"><path d="M -4.101562 -2.617188 L 205.257812 27.375 L 184.304688 173.632812 L -25.058594 143.636719 Z M -4.101562 -2.617188 " clip-rule="nonzero"/></clipPath><clipPath id="669f10bb73"><path d="M -4.101562 -2.617188 L 205.257812 27.375 L 184.304688 173.632812 L -25.058594 143.636719 Z M -4.101562 -2.617188 " clip-rule="nonzero"/></clipPath><clipPath id="46c91db68d"><path d="M 55 38 L 166 38 L 166 159 L 55 159 Z M 55 38 " clip-rule="nonzero"/></clipPath><clipPath id="38396bae76"><path d="M -4.101562 -2.617188 L 205.257812 27.375 L 184.304688 173.632812 L -25.058594 143.636719 Z M -4.101562 -2.617188 " clip-rule="nonzero"/></clipPath><clipPath id="55ed7c12b6"><path d="M -4.101562 -2.617188 L 205.257812 27.375 L 184.304688 173.632812 L -25.058594 143.636719 Z M -4.101562 -2.617188 " clip-rule="nonzero"/></clipPath><clipPath id="094ecaa34a"><path d="M 88 53 L 141 53 L 141 84 L 88 84 Z M 88 53 " clip-rule="nonzero"/></clipPath><clipPath id="a86999dc65"><path d="M -4.101562 -2.617188 L 205.257812 27.375 L 184.304688 173.632812 L -25.058594 143.636719 Z M -4.101562 -2.617188 " clip-rule="nonzero"/></clipPath><clipPath id="47ab588b32"><path d="M -4.101562 -2.617188 L 205.257812 27.375 L 184.304688 173.632812 L -25.058594 143.636719 Z M -4.101562 -2.617188 " clip-rule="nonzero"/></clipPath><clipPath id="168cb01ee1"><path d="M 87 52 L 142 52 L 142 85 L 87 85 Z M 87 52 " clip-rule="nonzero"/></clipPath><clipPath id="c3d9941c5e"><path d="M -4.101562 -2.617188 L 205.257812 27.375 L 184.304688 173.632812 L -25.058594 143.636719 Z M -4.101562 -2.617188 " clip-rule="nonzero"/></clipPath><clipPath id="0fd10625a5"><path d="M -4.101562 -2.617188 L 205.257812 27.375 L 184.304688 173.632812 L -25.058594 143.636719 Z M -4.101562 -2.617188 " clip-rule="nonzero"/></clipPath><clipPath id="9d3f8774fd"><path d="M 91 54 L 141 54 L 141 72 L 91 72 Z M 91 54 " clip-rule="nonzero"/></clipPath><clipPath id="2316253d9b"><path d="M -4.101562 -2.617188 L 205.257812 27.375 L 184.304688 173.632812 L -25.058594 143.636719 Z M -4.101562 -2.617188 " clip-rule="nonzero"/></clipPath><clipPath id="dc77bf1f32"><path d="M -4.101562 -2.617188 L 205.257812 27.375 L 184.304688 173.632812 L -25.058594 143.636719 Z M -4.101562 -2.617188 " clip-rule="nonzero"/></clipPath><clipPath id="beabfd7e6b"><path d="M 90 59 L 140 59 L 140 77 L 90 77 Z M 90 59 " clip-rule="nonzero"/></clipPath><clipPath id="8fedfec53c"><path d="M -4.101562 -2.617188 L 205.257812 27.375 L 184.304688 173.632812 L -25.058594 143.636719 Z M -4.101562 -2.617188 " clip-rule="nonzero"/></clipPath><clipPath id="852ef2944d"><path d="M -4.101562 -2.617188 L 205.257812 27.375 L 184.304688 173.632812 L -25.058594 143.636719 Z M -4.101562 -2.617188 " clip-rule="nonzero"/></clipPath><clipPath id="4cd1e542a8"><path d="M 89 64 L 139 64 L 139 81 L 89 81 Z M 89 64 " clip-rule="nonzero"/></clipPath><clipPath id="eeec463bef"><path d="M -4.101562 -2.617188 L 205.257812 27.375 L 184.304688 173.632812 L -25.058594 143.636719 Z M -4.101562 -2.617188 " clip-rule="nonzero"/></clipPath><clipPath id="eed81e8670"><path d="M -4.101562 -2.617188 L 205.257812 27.375 L 184.304688 173.632812 L -25.058594 143.636719 Z M -4.101562 -2.617188 " clip-rule="nonzero"/></clipPath><clipPath id="d72c592ea5"><rect x="0" width="180" y="0" height="171"/></clipPath><clipPath id="49042927d8"><path d="M 235.121094 146.117188 L 322.121094 146.117188 L 322.121094 222.617188 L 235.121094 222.617188 Z M 235.121094 146.117188 " clip-rule="nonzero"/></clipPath></defs><g clip-path="url(#a528cf0a64)"><path fill="#a86833" d="M 100.886719 134.9375 L 188.34375 49.0625 C 189.152344 48.265625 190.453125 48.277344 191.25 49.085938 L 278.355469 137.40625 C 279.152344 138.210938 279.140625 139.511719 278.332031 140.308594 C 277.527344 141.105469 276.226562 141.09375 275.429688 140.285156 L 188.320312 51.964844 L 191.226562 51.988281 L 103.765625 137.863281 C 102.957031 138.660156 101.65625 138.648438 100.859375 137.839844 C 100.0625 137.03125 100.074219 135.730469 100.886719 134.9375 Z M 100.886719 134.9375 " fill-opacity="1" fill-rule="nonzero"/></g><g clip-path="url(#b36d815641)"><path fill="#dcdad4" d="M 192.722656 51.472656 L 192.714844 51.933594 C 192.609375 52.871094 192.214844 53.632812 191.527344 54.226562 C 190.832031 54.816406 189.996094 55.082031 189.015625 55.023438 C 188.078125 54.917969 187.316406 54.523438 186.722656 53.835938 C 186.535156 53.613281 186.375 53.367188 186.246094 53.101562 L 186.082031 52.6875 C 185.988281 52.402344 185.933594 52.105469 185.917969 51.789062 C 185.894531 50.828125 186.191406 50.007812 186.800781 49.339844 C 187.410156 48.667969 188.199219 48.300781 189.160156 48.230469 C 190.125 48.210938 190.945312 48.503906 191.613281 49.113281 C 192.285156 49.722656 192.65625 50.507812 192.722656 51.472656 " fill-opacity="1" fill-rule="nonzero"/></g><g clip-path="url(#8086682e24)"><path fill="#aa6835" d="M 55.714844 112.621094 L 316.628906 112.621094 C 318.308594 112.621094 319.671875 113.980469 319.671875 115.65625 L 319.671875 297.910156 C 319.671875 299.585938 318.308594 300.945312 316.628906 300.945312 L 55.714844 300.945312 C 54.910156 300.945312 54.136719 300.628906 53.566406 300.058594 C 52.996094 299.488281 52.675781 298.714844 52.675781 297.910156 L 52.675781 115.65625 C 52.675781 114.851562 52.996094 114.078125 53.566406 113.511719 C 54.136719 112.941406 54.910156 112.621094 55.714844 112.621094 M 55.714844 118.695312 L 58.757812 115.65625 L 58.757812 297.910156 L 55.714844 294.875 L 316.628906 294.875 L 313.589844 297.910156 L 313.589844 115.65625 L 316.628906 118.695312 Z M 55.714844 118.695312 " fill-opacity="1" fill-rule="nonzero"/></g><path fill="#aa6835" d="M 57.414062 282.34375 L 314.035156 282.34375 C 316.105469 282.34375 317.785156 284.019531 317.785156 286.089844 L 317.785156 291.898438 C 317.785156 293.964844 316.105469 295.640625 314.035156 295.640625 L 57.414062 295.640625 C 56.417969 295.640625 55.464844 295.246094 54.761719 294.546875 C 54.058594 293.84375 53.664062 292.890625 53.664062 291.898438 L 53.664062 286.089844 C 53.664062 285.097656 54.058594 284.144531 54.761719 283.441406 C 55.464844 282.738281 56.417969 282.34375 57.414062 282.34375 M 57.414062 289.832031 L 61.164062 286.089844 L 61.164062 291.898438 L 57.414062 288.152344 L 314.035156 288.152344 L 310.289062 291.898438 L 310.289062 286.089844 L 314.035156 289.835938 Z M 57.414062 289.832031 " fill-opacity="1" fill-rule="nonzero"/><path fill="#dcdad4" d="M 58.394531 118.128906 L 314.824219 118.128906 C 315.6875 118.128906 316.382812 118.828125 316.382812 119.6875 L 316.382812 286.546875 C 316.382812 287.40625 315.6875 288.105469 314.824219 288.105469 L 58.394531 288.105469 C 57.980469 288.105469 57.585938 287.941406 57.292969 287.648438 C 57.003906 287.355469 56.839844 286.960938 56.839844 286.546875 L 56.839844 119.6875 C 56.839844 119.273438 57.003906 118.878906 57.292969 118.585938 C 57.585938 118.292969 57.980469 118.128906 58.394531 118.128906 M 58.394531 121.242188 L 59.953125 119.6875 L 59.953125 286.546875 L 58.394531 284.992188 L 314.824219 284.992188 L 313.269531 286.546875 L 313.269531 119.6875 L 314.824219 121.242188 Z M 58.394531 121.242188 " fill-opacity="0.451" fill-rule="nonzero"/><path fill="#0f212b" d="M 57.835938 118.972656 L 315.320312 118.972656 L 315.320312 286.226562 C 229.492188 286.226562 143.664062 286.226562 57.835938 286.226562 C 57.835938 230.476562 57.835938 174.722656 57.835938 118.972656 " fill-opacity="1" fill-rule="nonzero"/><path fill="#2b4a53" d="M 57.835938 118.972656 C 57.835938 121.121094 57.835938 123.265625 57.835938 125.414062 C 77.199219 144.550781 106.082031 166.875 144.484375 192.390625 C 168.394531 208.042969 192.832031 221.558594 217.792969 232.945312 C 236.777344 241.363281 255.640625 246.625 274.386719 248.730469 C 280.804688 249.421875 287.140625 249.765625 293.394531 249.765625 C 300.816406 249.765625 308.125 249.28125 315.316406 248.304688 L 315.320312 248.304688 L 315.320312 118.972656 Z M 57.835938 118.972656 " fill-opacity="0.333" fill-rule="nonzero"/><path fill="#dcdad4" d="M 293.304688 292.308594 L 292.742188 291.375 C 289.730469 286.085938 282.722656 275.242188 271.710938 258.851562 L 266.945312 261.035156 C 266.890625 261.730469 267.636719 263.328125 269.179688 265.828125 C 270.996094 268.941406 277.730469 279.191406 289.371094 296.582031 L 293.304688 292.308594 " fill-opacity="1" fill-rule="nonzero"/><path fill="#2b4a53" d="M 286.742188 254.871094 L 298.804688 293.574219 C 300.546875 292.941406 302.292969 292.304688 304.035156 291.671875 C 300.304688 278.957031 296.574219 266.246094 292.84375 253.535156 L 286.742188 254.871094 " fill-opacity="1" fill-rule="nonzero"/><path fill="#b7997c" d="M 289.488281 266.375 L 287.101562 259.859375 L 285.242188 254.035156 L 291.914062 251.382812 L 294.292969 257.441406 L 296.28125 263.976562 L 289.488281 266.375 " fill-opacity="1" fill-rule="nonzero"/><path fill="#aa6835" d="M 287.125 263.835938 L 279.960938 259.253906 L 272.796875 254.667969 C 280.152344 267.1875 287.503906 279.703125 294.855469 292.21875 L 287.125 263.835938 " fill-opacity="1" fill-rule="nonzero"/><path fill="#dcdad4" d="M 275.695312 257.9375 L 275.953125 258.382812 L 275.515625 258.636719 L 275.257812 258.191406 Z M 276.339844 259.050781 L 276.597656 259.496094 L 276.160156 259.75 L 275.902344 259.304688 Z M 276.984375 260.164062 L 277.242188 260.609375 L 276.804688 260.863281 L 276.546875 260.417969 Z M 277.632812 261.273438 L 277.890625 261.71875 L 277.449219 261.972656 L 277.191406 261.527344 Z M 278.277344 262.386719 L 278.535156 262.832031 L 278.09375 263.085938 L 277.835938 262.640625 Z M 278.921875 263.5 L 279.179688 263.945312 L 278.738281 264.199219 L 278.480469 263.753906 Z M 279.566406 264.613281 L 279.824219 265.058594 L 279.386719 265.3125 L 279.128906 264.867188 Z M 280.210938 265.722656 L 280.46875 266.167969 L 280.03125 266.421875 L 279.773438 265.976562 Z M 280.855469 266.835938 L 281.113281 267.28125 L 280.675781 267.535156 L 280.417969 267.089844 Z M 281.5 267.949219 L 281.757812 268.394531 L 281.320312 268.648438 L 281.0625 268.203125 Z M 282.144531 269.0625 L 282.402344 269.507812 L 281.964844 269.761719 L 281.707031 269.316406 Z M 282.792969 270.171875 L 283.050781 270.617188 L 282.609375 270.871094 L 282.351562 270.425781 Z M 283.4375 271.285156 L 283.695312 271.730469 L 283.253906 271.984375 L 282.996094 271.539062 Z M 284.082031 272.398438 L 284.339844 272.84375 L 283.898438 273.097656 L 283.640625 272.652344 Z M 284.726562 273.511719 L 284.984375 273.957031 L 284.546875 274.210938 L 284.289062 273.765625 Z M 285.371094 274.621094 L 285.628906 275.066406 L 285.191406 275.320312 L 284.933594 274.875 Z M 286.015625 275.734375 L 286.273438 276.179688 L 285.835938 276.433594 L 285.578125 275.988281 Z M 286.660156 276.847656 L 286.917969 277.292969 L 286.480469 277.546875 L 286.222656 277.101562 Z M 287.304688 277.960938 L 287.5625 278.40625 L 287.125 278.660156 L 286.867188 278.214844 Z M 287.953125 279.070312 L 288.210938 279.515625 L 287.769531 279.769531 L 287.511719 279.324219 Z M 288.597656 280.183594 L 288.855469 280.628906 L 288.414062 280.882812 L 288.15625 280.4375 Z M 289.242188 281.296875 L 289.5 281.742188 L 289.058594 281.996094 L 288.800781 281.550781 Z M 289.886719 282.410156 L 290.144531 282.851562 L 289.707031 283.109375 L 289.449219 282.664062 Z M 290.53125 283.519531 L 290.789062 283.964844 L 290.351562 284.21875 L 290.09375 283.773438 Z M 291.175781 284.632812 L 291.433594 285.078125 L 290.996094 285.332031 L 290.738281 284.886719 Z M 291.820312 285.746094 L 292.078125 286.191406 L 291.640625 286.445312 L 291.382812 286 Z M 292.464844 286.859375 L 292.722656 287.300781 L 292.285156 287.554688 L 292.027344 287.113281 Z M 292.648438 288.164062 L 293.136719 288.03125 Z M 275.050781 256.824219 L 275.308594 257.269531 L 274.871094 257.523438 L 274.613281 257.082031 Z M 275.050781 256.824219 " fill-opacity="1" fill-rule="nonzero"/><path fill="#b7997c" d="M 299.394531 237.632812 L 299.886719 266.25 L 300.382812 294.871094 C 302.75 294.75 305.117188 294.632812 307.480469 294.511719 C 307 275.441406 306.519531 256.375 306.035156 237.304688 L 299.394531 237.632812 " fill-opacity="1" fill-rule="nonzero"/><path fill="#2b4a53" d="M 299.824219 238.523438 L 299.828125 238.730469 L 299.625 238.734375 L 299.621094 238.527344 Z M 299.839844 239.347656 L 299.855469 239.96875 L 299.652344 239.972656 L 299.640625 239.351562 Z M 299.859375 240.175781 L 299.863281 240.378906 L 299.660156 240.382812 L 299.65625 240.179688 Z M 299.875 241 L 299.886719 241.621094 L 299.683594 241.625 L 299.671875 241.003906 Z M 299.890625 241.824219 L 299.894531 242.03125 L 299.691406 242.035156 L 299.6875 241.828125 Z M 299.90625 242.652344 L 299.917969 243.273438 L 299.714844 243.277344 L 299.703125 242.65625 Z M 299.921875 243.476562 L 299.925781 243.683594 L 299.722656 243.6875 L 299.71875 243.480469 Z M 299.9375 244.304688 L 299.949219 244.921875 L 299.746094 244.925781 L 299.734375 244.308594 Z M 299.953125 245.128906 L 299.957031 245.335938 L 299.753906 245.339844 L 299.75 245.132812 Z M 299.96875 245.957031 L 299.980469 246.574219 L 299.777344 246.578125 L 299.765625 245.960938 Z M 299.984375 246.78125 L 299.988281 246.988281 L 299.789062 246.992188 L 299.78125 246.785156 Z M 300.003906 247.609375 L 300.015625 248.226562 L 299.8125 248.230469 L 299.800781 247.613281 Z M 300.019531 248.433594 L 300.023438 248.640625 L 299.820312 248.644531 L 299.816406 248.4375 Z M 300.035156 249.261719 L 300.046875 249.878906 L 299.84375 249.882812 L 299.832031 249.265625 Z M 300.050781 250.085938 L 300.054688 250.292969 L 299.851562 250.296875 L 299.847656 250.089844 Z M 300.066406 250.910156 L 300.078125 251.53125 L 299.875 251.535156 L 299.863281 250.914062 Z M 300.082031 251.738281 L 300.085938 251.945312 L 299.882812 251.949219 L 299.878906 251.742188 Z M 300.097656 252.5625 L 300.109375 253.183594 L 299.90625 253.1875 L 299.894531 252.566406 Z M 300.113281 253.390625 L 300.117188 253.597656 L 299.914062 253.601562 L 299.910156 253.394531 Z M 300.128906 254.214844 L 300.140625 254.835938 L 299.941406 254.839844 L 299.925781 254.21875 Z M 300.144531 255.042969 L 300.152344 255.25 L 299.949219 255.253906 L 299.945312 255.046875 Z M 300.164062 255.867188 L 300.175781 256.488281 L 299.972656 256.492188 L 299.960938 255.871094 Z M 300.179688 256.695312 L 300.183594 256.898438 L 299.980469 256.902344 L 299.976562 256.699219 Z M 300.195312 257.519531 L 300.207031 258.140625 L 300.003906 258.144531 L 299.992188 257.523438 Z M 300.210938 258.34375 L 300.214844 258.550781 L 300.011719 258.554688 L 300.007812 258.347656 Z M 300.226562 259.171875 L 300.238281 259.792969 L 300.035156 259.796875 L 300.023438 259.175781 Z M 300.242188 259.996094 L 300.246094 260.203125 L 300.042969 260.207031 L 300.039062 260 Z M 300.257812 260.824219 L 300.269531 261.441406 L 300.066406 261.445312 L 300.054688 260.828125 Z M 300.273438 261.648438 L 300.277344 261.855469 L 300.074219 261.859375 L 300.070312 261.652344 Z M 300.289062 262.476562 L 300.304688 263.09375 L 300.101562 263.097656 L 300.089844 262.480469 Z M 300.308594 263.300781 L 300.3125 263.507812 L 300.109375 263.511719 L 300.105469 263.304688 Z M 300.324219 264.128906 L 300.335938 264.746094 L 300.132812 264.75 L 300.121094 264.132812 Z M 300.339844 264.953125 L 300.34375 265.160156 L 300.140625 265.164062 L 300.136719 264.957031 Z M 300.355469 265.78125 L 300.367188 266.398438 L 300.164062 266.402344 L 300.152344 265.785156 Z M 300.371094 266.605469 L 300.375 266.8125 L 300.171875 266.816406 L 300.167969 266.609375 Z M 300.386719 267.429688 L 300.398438 268.050781 L 300.195312 268.054688 L 300.183594 267.433594 Z M 300.402344 268.257812 L 300.40625 268.464844 L 300.203125 268.46875 L 300.199219 268.261719 Z M 300.417969 269.082031 L 300.429688 269.703125 L 300.226562 269.707031 L 300.214844 269.085938 Z M 300.433594 269.910156 L 300.4375 270.117188 L 300.238281 270.121094 L 300.234375 269.914062 Z M 300.453125 270.734375 L 300.464844 271.355469 L 300.261719 271.359375 L 300.25 270.738281 Z M 300.46875 271.5625 L 300.472656 271.765625 L 300.269531 271.773438 L 300.265625 271.566406 Z M 300.484375 272.386719 L 300.496094 273.007812 L 300.292969 273.011719 L 300.28125 272.390625 Z M 300.5 273.214844 L 300.503906 273.417969 L 300.300781 273.421875 L 300.296875 273.21875 Z M 300.515625 274.039062 L 300.527344 274.660156 L 300.324219 274.664062 L 300.3125 274.042969 Z M 300.53125 274.863281 L 300.535156 275.070312 L 300.332031 275.074219 L 300.328125 274.867188 Z M 300.546875 275.691406 L 300.558594 276.308594 L 300.355469 276.3125 L 300.34375 275.695312 Z M 300.5625 276.515625 L 300.566406 276.722656 L 300.363281 276.726562 L 300.359375 276.519531 Z M 300.578125 277.34375 L 300.59375 277.960938 L 300.390625 277.964844 L 300.375 277.347656 Z M 300.597656 278.167969 L 300.601562 278.375 L 300.398438 278.378906 L 300.394531 278.171875 Z M 300.613281 278.996094 L 300.625 279.613281 L 300.421875 279.617188 L 300.410156 279 Z M 300.628906 279.820312 L 300.632812 280.027344 L 300.429688 280.03125 L 300.425781 279.824219 Z M 300.644531 280.648438 L 300.65625 281.265625 L 300.453125 281.269531 L 300.441406 280.652344 Z M 300.660156 281.472656 L 300.664062 281.679688 L 300.460938 281.683594 L 300.457031 281.476562 Z M 300.675781 282.296875 L 300.6875 282.917969 L 300.484375 282.921875 L 300.472656 282.300781 Z M 300.691406 283.125 L 300.695312 283.332031 L 300.492188 283.335938 L 300.488281 283.128906 Z M 300.707031 283.949219 L 300.71875 284.570312 L 300.515625 284.574219 L 300.503906 283.953125 Z M 300.722656 284.777344 L 300.726562 284.984375 L 300.523438 284.988281 L 300.519531 284.78125 Z M 300.742188 285.601562 L 300.753906 286.222656 L 300.550781 286.226562 L 300.539062 285.605469 Z M 300.757812 286.429688 L 300.761719 286.636719 L 300.558594 286.640625 L 300.554688 286.433594 Z M 300.773438 287.253906 L 300.785156 287.875 L 300.582031 287.878906 L 300.570312 287.257812 Z M 300.789062 288.082031 L 300.792969 288.285156 L 300.589844 288.289062 L 300.585938 288.085938 Z M 300.804688 288.90625 L 300.816406 289.527344 L 300.613281 289.53125 L 300.601562 288.910156 Z M 300.820312 289.730469 L 300.824219 289.9375 L 300.621094 289.941406 L 300.617188 289.734375 Z M 300.835938 290.558594 L 300.847656 291.175781 L 300.644531 291.179688 L 300.632812 290.5625 Z M 300.851562 291.382812 L 300.855469 291.589844 L 300.652344 291.59375 L 300.648438 291.386719 Z M 300.867188 292.210938 L 300.878906 292.828125 L 300.679688 292.832031 L 300.664062 292.214844 Z M 300.882812 293.035156 L 300.890625 293.242188 L 300.6875 293.246094 L 300.683594 293.039062 Z M 299.808594 237.695312 L 299.820312 238.316406 L 299.617188 238.320312 L 299.605469 237.699219 Z M 299.808594 237.695312 " fill-opacity="0.996" fill-rule="nonzero"/><path fill="#b7997c" d="M 271.644531 276.5 L 290.367188 276.234375 L 309.085938 275.96875 C 309.191406 283.144531 309.292969 290.320312 309.394531 297.496094 C 296.914062 297.675781 284.433594 297.851562 271.953125 298.03125 C 271.851562 290.855469 271.746094 283.679688 271.644531 276.5 " fill-opacity="0.588" fill-rule="nonzero"/><path fill="#dcdad4" d="M 274.203125 279.890625 L 273.914062 279.921875 L 273.699219 280.1875 C 273.625 280.394531 273.5625 280.601562 273.503906 280.808594 C 273.34375 281.363281 273.207031 282.039062 273.09375 282.839844 C 273.015625 283.410156 272.953125 284.097656 272.910156 284.894531 C 272.871094 285.53125 272.832031 286.59375 272.796875 288.082031 C 272.777344 289.109375 272.863281 290.027344 273.050781 290.828125 C 273.164062 291.285156 273.300781 291.652344 273.457031 291.925781 L 273.738281 291.957031 L 273.914062 291.730469 C 273.898438 291.511719 273.878906 291.289062 273.851562 291.066406 C 273.804688 290.34375 273.773438 289.878906 273.753906 289.667969 C 273.730469 289.234375 273.714844 288.878906 273.707031 288.609375 C 273.683594 287.890625 273.699219 287.160156 273.757812 286.417969 C 273.769531 286.195312 273.824219 285.78125 273.921875 285.179688 C 274.019531 284.570312 274.164062 283.769531 274.34375 282.769531 C 274.398438 282.460938 274.449219 282.15625 274.496094 281.859375 C 274.582031 281.324219 274.640625 280.875 274.675781 280.515625 L 274.652344 280.296875 L 274.476562 280.03125 L 274.203125 279.890625 M 273.605469 292.175781 L 273.417969 292.429688 L 273.441406 292.582031 L 273.507812 292.6875 L 273.664062 292.890625 L 273.550781 292.996094 L 273.511719 293.191406 C 273.53125 293.3125 273.546875 293.414062 273.5625 293.5 L 273.578125 293.632812 L 273.632812 293.824219 L 273.789062 293.917969 L 273.972656 293.925781 L 274.125 293.859375 L 274.210938 293.695312 L 274.195312 293.507812 L 274.117188 293.285156 L 274.046875 293.117188 L 273.949219 292.910156 L 274.0625 292.785156 L 274.078125 292.617188 L 274.054688 292.539062 C 273.949219 292.347656 273.890625 292.246094 273.882812 292.234375 L 273.605469 292.175781 " fill-opacity="0.388" fill-rule="nonzero"/><path fill="#b7997c" d="M 232.175781 286.828125 L 231.761719 286.972656 C 229.871094 287.488281 228.804688 288.5 228.566406 290.007812 C 228.277344 291.265625 228.890625 294.277344 230.414062 299.046875 L 268.539062 296.40625 C 268.652344 294.601562 268.558594 293.203125 268.257812 292.214844 C 268.015625 291.242188 267.296875 289.695312 266.09375 287.578125 L 232.175781 286.828125 " fill-opacity="1" fill-rule="nonzero"/><path fill="#0f212b" d="M 231.789062 286.636719 L 231.972656 290.53125 L 232.160156 294.425781 C 244.269531 293.628906 256.378906 292.828125 268.488281 292.03125 C 267.53125 290.085938 266.574219 288.140625 265.621094 286.191406 L 231.789062 286.636719 " fill-opacity="1" fill-rule="nonzero"/><g mask="url(#44ac7fbdb5)"><g transform="matrix(1, 0, 0, 1, 87, 113)"><g clip-path="url(#d72c592ea5)"><g clip-path="url(#26e2baf2f3)"><g clip-path="url(#48e6ac6e8f)"><g clip-path="url(#9ea37d8859)"><path fill="#ff7a00" d="M 18.328125 40.386719 L 103.1875 14.132812 L 138.875 125.226562 L 54.019531 151.480469 Z M 18.328125 40.386719 " fill-opacity="1" fill-rule="nonzero"/></g></g></g><g clip-path="url(#8207031656)"><g clip-path="url(#e0f576562d)"><g clip-path="url(#8982d21f37)"><path stroke-linecap="butt" transform="matrix(0.95382, -0.295101, 0.305368, 0.950581, -151.801251, -477.255296)" fill="none" stroke-linejoin="round" d="M 3.661983 545.690008 L 92.629681 545.690544 L 92.629022 662.559628 L 3.665049 662.560249 Z M 3.661983 545.690008 " stroke="#000000" stroke-width="2.1" stroke-opacity="1" stroke-miterlimit="4"/></g></g></g><g clip-path="url(#47c254675e)"><g clip-path="url(#eff70c99e2)"><g clip-path="url(#43fb9bc177)"><path fill="#ff7a00" d="M 45.988281 26.703125 L 134.820312 20.398438 L 143.175781 138.105469 L 54.34375 144.410156 Z M 45.988281 26.703125 " fill-opacity="1" fill-rule="nonzero"/></g></g></g><g clip-path="url(#75d4f5eaff)"><g clip-path="url(#a839c097db)"><g clip-path="url(#3511a6f86e)"><path stroke-linecap="butt" transform="matrix(0.995922, -0.0706885, 0.0706885, 0.995922, -151.802086, -477.255752)" fill="none" stroke-linejoin="round" d="M 161.86832 517.511324 L 251.064029 517.511747 L 251.064899 635.700771 L 161.86919 635.700348 Z M 161.86832 517.511324 " stroke="#000000" stroke-width="2.1" stroke-opacity="1" stroke-miterlimit="4"/></g></g></g><g clip-path="url(#d85234b9bc)"><g clip-path="url(#a02cf989cc)"><g clip-path="url(#482d04d935)"><path fill="#ff7a00" d="M 80.394531 31.597656 L 158.375 42.769531 C 159.390625 42.914062 160.378906 43.144531 161.347656 43.457031 C 162.316406 43.769531 163.246094 44.164062 164.132812 44.632812 C 165.019531 45.105469 165.847656 45.644531 166.621094 46.253906 C 167.390625 46.863281 168.089844 47.53125 168.71875 48.253906 C 169.34375 48.980469 169.886719 49.746094 170.34375 50.558594 C 170.804688 51.371094 171.167969 52.210938 171.4375 53.082031 C 171.710938 53.949219 171.882812 54.828125 171.957031 55.71875 C 172.03125 56.609375 172.003906 57.496094 171.878906 58.375 L 158.125 154.378906 C 157.996094 155.257812 157.773438 156.113281 157.453125 156.949219 C 157.132812 157.785156 156.71875 158.578125 156.214844 159.335938 C 155.710938 160.09375 155.125 160.796875 154.457031 161.449219 C 153.792969 162.101562 153.054688 162.683594 152.25 163.203125 C 151.445312 163.722656 150.585938 164.167969 149.675781 164.535156 C 148.761719 164.90625 147.816406 165.191406 146.832031 165.394531 C 145.847656 165.59375 144.847656 165.710938 143.828125 165.742188 C 142.8125 165.769531 141.796875 165.710938 140.785156 165.566406 L 62.800781 154.394531 C 61.789062 154.25 60.800781 154.019531 59.832031 153.707031 C 58.863281 153.394531 57.933594 153 57.046875 152.53125 C 56.160156 152.058594 55.332031 151.519531 54.558594 150.910156 C 53.785156 150.300781 53.085938 149.632812 52.460938 148.910156 C 51.832031 148.183594 51.292969 147.414062 50.832031 146.601562 C 50.375 145.792969 50.011719 144.949219 49.742188 144.082031 C 49.46875 143.214844 49.296875 142.335938 49.222656 141.441406 C 49.148438 140.550781 49.175781 139.667969 49.300781 138.785156 L 63.054688 42.785156 C 63.179688 41.90625 63.40625 41.050781 63.726562 40.214844 C 64.046875 39.378906 64.460938 38.582031 64.964844 37.828125 C 65.46875 37.070312 66.054688 36.363281 66.71875 35.714844 C 67.386719 35.0625 68.125 34.476562 68.929688 33.957031 C 69.734375 33.4375 70.59375 32.996094 71.503906 32.628906 C 72.417969 32.257812 73.363281 31.972656 74.347656 31.769531 C 75.332031 31.566406 76.332031 31.453125 77.351562 31.421875 C 78.367188 31.394531 79.382812 31.453125 80.394531 31.597656 " fill-opacity="1" fill-rule="nonzero"/></g></g></g><g clip-path="url(#6c0d71b4b2)"><g clip-path="url(#9dca5bc780)"><g clip-path="url(#930cc371de)"><path stroke-linecap="butt" transform="matrix(0.988337, 0.141595, -0.141595, 0.988337, -151.801251, -477.255296)" fill="none" stroke-linejoin="round" d="M 302.489093 471.521478 L 381.389802 471.52138 C 382.417275 471.520415 383.429843 471.608536 384.4347 471.780762 C 385.439556 471.952988 386.417336 472.212092 387.363057 472.550884 C 388.309332 472.893549 389.206947 473.310375 390.060329 473.80468 C 390.909838 474.29954 391.697959 474.862481 392.424136 475.489628 C 393.146995 476.121204 393.794073 476.803159 394.362606 477.543796 C 394.935012 478.283878 395.41448 479.064941 395.805439 479.890304 C 396.199716 480.711238 396.494963 481.558218 396.695053 482.430687 C 396.895143 483.303156 396.993984 484.186178 396.994894 485.075326 L 396.995111 582.212153 C 396.992148 583.101856 396.892908 583.981638 396.694071 584.855927 C 396.495235 585.730216 396.197347 586.57522 395.805389 587.39813 C 395.413431 588.22104 394.932376 589.001381 394.362777 589.743028 C 393.797051 590.484119 393.147754 591.166042 392.423741 591.795431 C 391.699727 592.42482 390.910952 592.988392 390.060732 593.481721 C 389.207194 593.979477 388.310467 594.396469 387.363359 594.73768 C 386.415697 595.075018 385.440891 595.333245 384.434514 595.509044 C 383.431455 595.680415 382.41619 595.766583 381.39259 595.766993 L 302.488008 595.767647 C 301.464408 595.768057 300.451839 595.679936 299.446983 595.50771 C 298.442127 595.335484 297.464347 595.07638 296.518626 594.737588 C 295.572351 594.394923 294.674736 593.978097 293.821354 593.483792 C 292.967972 592.989487 292.179851 592.426546 291.457547 591.798844 C 290.730815 591.167823 290.087055 590.48144 289.514649 589.741358 C 288.946671 589.004594 288.466648 588.219658 288.076244 587.398168 C 287.681967 586.577234 287.38672 585.730254 287.186075 584.853912 C 286.985985 583.981443 286.887699 583.102294 286.886235 582.209273 L 286.886572 485.076319 C 286.885662 484.187171 286.988775 483.306834 287.187612 482.432545 C 287.386448 481.558256 287.683782 480.709379 288.076294 479.890342 C 288.468252 479.067432 288.948752 478.283218 289.515033 477.545999 C 290.084631 476.804353 290.733374 476.118557 291.457387 475.489168 C 292.181401 474.859779 292.970731 474.30008 293.820951 473.806751 C 294.674489 473.308995 295.571216 472.892003 296.518324 472.550792 C 297.465431 472.209581 298.440792 471.955227 299.447169 471.779428 C 300.450228 471.608057 301.465493 471.521889 302.489093 471.521478 " stroke="#000000" stroke-width="3.8" stroke-opacity="1" stroke-miterlimit="4"/></g></g></g><g clip-path="url(#702c5349d3)"><g clip-path="url(#c8515c4a39)"><g clip-path="url(#669f10bb73)"><path fill="#ff7a00" d="M 85.796875 39.792969 L 150.886719 49.117188 C 151.902344 49.265625 152.890625 49.492188 153.859375 49.808594 C 154.828125 50.121094 155.757812 50.515625 156.644531 50.984375 C 157.53125 51.457031 158.359375 51.996094 159.132812 52.605469 C 159.902344 53.214844 160.605469 53.882812 161.230469 54.605469 C 161.855469 55.332031 162.398438 56.097656 162.855469 56.910156 C 163.316406 57.722656 163.679688 58.5625 163.949219 59.429688 C 164.222656 60.300781 164.394531 61.179688 164.46875 62.070312 C 164.542969 62.960938 164.515625 63.847656 164.390625 64.726562 L 152.71875 146.183594 C 152.59375 147.0625 152.371094 147.921875 152.050781 148.753906 C 151.726562 149.589844 151.316406 150.386719 150.8125 151.144531 C 150.308594 151.902344 149.722656 152.605469 149.054688 153.253906 C 148.386719 153.90625 147.652344 154.492188 146.84375 155.011719 C 146.039062 155.53125 145.183594 155.972656 144.269531 156.34375 C 143.359375 156.710938 142.410156 156.996094 141.425781 157.199219 C 140.441406 157.402344 139.441406 157.515625 138.425781 157.546875 C 137.40625 157.578125 136.390625 157.519531 135.378906 157.375 L 70.289062 148.046875 C 69.277344 147.902344 68.285156 147.671875 67.316406 147.359375 C 66.347656 147.046875 65.421875 146.652344 64.53125 146.183594 C 63.644531 145.710938 62.816406 145.171875 62.042969 144.5625 C 61.273438 143.953125 60.574219 143.285156 59.945312 142.5625 C 59.320312 141.835938 58.777344 141.066406 58.320312 140.257812 C 57.863281 139.445312 57.496094 138.605469 57.226562 137.734375 C 56.953125 136.867188 56.78125 135.988281 56.707031 135.097656 C 56.632812 134.207031 56.660156 133.320312 56.785156 132.441406 L 68.457031 50.984375 C 68.582031 50.101562 68.804688 49.246094 69.128906 48.410156 C 69.449219 47.578125 69.863281 46.78125 70.367188 46.023438 C 70.871094 45.265625 71.453125 44.5625 72.121094 43.910156 C 72.789062 43.261719 73.527344 42.675781 74.332031 42.15625 C 75.136719 41.636719 75.996094 41.191406 76.90625 40.824219 C 77.820312 40.457031 78.765625 40.171875 79.75 39.96875 C 80.734375 39.765625 81.734375 39.648438 82.753906 39.621094 C 83.769531 39.589844 84.785156 39.648438 85.796875 39.792969 " fill-opacity="1" fill-rule="nonzero"/></g></g></g><g clip-path="url(#46c91db68d)"><g clip-path="url(#38396bae76)"><g clip-path="url(#55ed7c12b6)"><path stroke-linecap="butt" transform="matrix(0.988337, 0.141595, -0.141595, 0.988337, -151.801251, -477.255296)" fill="none" stroke-linejoin="round" d="M 309.009329 478.879374 L 374.867167 478.878419 C 375.895194 478.881327 376.907208 478.965576 377.91262 479.141674 C 378.917476 479.3139 379.895256 479.573004 380.840976 479.911796 C 381.787252 480.254461 382.684866 480.671287 383.538249 481.165592 C 384.387758 481.660453 385.179752 482.222838 385.902056 482.850541 C 386.624915 483.482116 387.271993 484.164072 387.840526 484.904708 C 388.412932 485.64479 388.8924 486.425854 389.282804 487.247343 C 389.677635 488.072151 389.972882 488.91913 390.172972 489.791599 C 390.373062 490.664068 390.471903 491.547091 390.472813 492.436239 L 390.471002 574.854812 C 390.471912 575.74396 390.373226 576.627615 390.173835 577.498031 C 389.971126 578.372875 389.677665 579.221197 389.285708 580.044107 C 388.89375 580.867017 388.412695 581.647358 387.842541 582.385132 C 387.272943 583.126778 386.628073 583.812018 385.900187 584.441962 C 385.176173 585.071351 384.390716 585.630496 383.537178 586.128253 C 382.686958 586.621581 381.786358 587.039128 380.83925 587.380339 C 379.892143 587.72155 378.916782 587.975904 377.914278 588.151148 C 376.907901 588.326947 375.892636 588.413115 374.869036 588.413525 L 309.010643 588.410607 C 307.987044 588.411018 306.970602 588.323451 305.965745 588.151225 C 304.960889 587.979 303.986982 587.719341 303.037389 587.381104 C 302.091113 587.038439 301.193498 586.621613 300.340116 586.127307 C 299.490607 585.632447 298.702486 585.069507 297.976309 584.442359 C 297.25345 583.810784 296.605817 583.124955 296.037839 582.388191 C 295.469306 581.647554 294.985965 580.867046 294.595006 580.041684 C 294.20073 579.220749 293.905483 578.37377 293.705393 577.5013 C 293.505303 576.628831 293.406462 575.745809 293.405552 574.856661 L 293.407362 492.438088 C 293.405898 491.545067 293.505139 490.665285 293.707848 489.790441 C 293.907239 488.920025 294.204572 488.071148 294.59653 487.248238 C 294.988488 486.425328 295.46567 485.645541 296.035269 484.903895 C 296.605422 484.166121 297.254165 483.480326 297.978178 482.850937 C 298.702192 482.221548 299.490967 481.657976 300.341187 481.164647 C 301.19528 480.670764 302.092007 480.253771 303.039115 479.912561 C 303.986222 479.57135 304.961028 479.313123 305.96796 479.141197 C 306.970464 478.965953 307.985729 478.879785 309.009329 478.879374 " stroke="#000000" stroke-width="2.1" stroke-opacity="1" stroke-miterlimit="4"/></g></g></g><g clip-path="url(#094ecaa34a)"><g clip-path="url(#a86999dc65)"><g clip-path="url(#47ab588b32)"><path fill="#ff7a00" d="M 92.019531 53.949219 L 140.941406 60.957031 L 137.648438 83.921875 L 88.730469 76.910156 Z M 92.019531 53.949219 " fill-opacity="1" fill-rule="nonzero"/></g></g></g><g clip-path="url(#168cb01ee1)"><g clip-path="url(#c3d9941c5e)"><g clip-path="url(#0fd10625a5)"><path stroke-linecap="butt" transform="matrix(0.988337, 0.141595, -0.141595, 0.988337, -151.801251, -477.255296)" fill="none" stroke-linejoin="round" d="M 317.189565 492.030731 L 366.688624 492.029696 L 366.685768 515.265959 L 317.190028 515.262567 Z M 317.189565 492.030731 " stroke="#000000" stroke-width="2.1" stroke-opacity="1" stroke-miterlimit="4"/></g></g></g><g clip-path="url(#9d3f8774fd)"><g clip-path="url(#2316253d9b)"><g clip-path="url(#dc77bf1f32)"><path stroke-linecap="butt" transform="matrix(0.988337, 0.141595, -0.141595, 0.988337, -151.801251, -477.255296)" fill="none" stroke-linejoin="miter" d="M 322.741443 497.788327 L 361.126979 497.790642 " stroke="#000000" stroke-width="1" stroke-opacity="1" stroke-miterlimit="4"/></g></g></g><g clip-path="url(#beabfd7e6b)"><g clip-path="url(#8fedfec53c)"><g clip-path="url(#852ef2944d)"><path stroke-linecap="butt" transform="matrix(0.988337, 0.141595, -0.141595, 0.988337, -151.801251, -477.255296)" fill="none" stroke-linejoin="miter" d="M 322.740133 502.800092 L 361.125114 502.798534 " stroke="#000000" stroke-width="1" stroke-opacity="1" stroke-miterlimit="4"/></g></g></g><g clip-path="url(#4cd1e542a8)"><g clip-path="url(#eeec463bef)"><g clip-path="url(#eed81e8670)"><path stroke-linecap="butt" transform="matrix(0.988337, 0.141595, -0.141595, 0.988337, -151.801251, -477.255296)" fill="none" stroke-linejoin="miter" d="M 322.738634 507.341555 L 361.127488 507.339442 " stroke="#000000" stroke-width="1" stroke-opacity="1" stroke-miterlimit="4"/></g></g></g></g></g></g><g clip-path="url(#49042927d8)"><path fill="#000000" d="M 322.066406 154.242188 C 322.03125 153.308594 321.714844 152.410156 321.328125 151.566406 C 320.449219 149.617188 318.773438 148.066406 316.910156 147.066406 C 316.398438 146.800781 315.871094 146.574219 315.324219 146.414062 C 314.796875 146.257812 314.199219 146.152344 313.617188 146.152344 C 313.195312 146.152344 312.898438 146.433594 312.578125 146.660156 C 312.367188 146.820312 312.175781 146.976562 311.964844 147.136719 C 310.695312 148.121094 309.480469 149.160156 308.285156 150.214844 C 308.25 150.25 308.214844 150.265625 308.195312 150.300781 C 308.039062 150.265625 307.878906 150.25 307.722656 150.25 C 307.371094 150.25 307.019531 150.285156 306.683594 150.40625 C 306.523438 150.460938 306.367188 150.546875 306.226562 150.617188 C 306.085938 150.707031 305.945312 150.777344 305.804688 150.863281 C 305.539062 151.039062 305.277344 151.214844 305.027344 151.410156 C 304.535156 151.796875 304.078125 152.199219 303.640625 152.640625 C 302.847656 153.449219 301.070312 155.578125 301.015625 155.699219 C 300.980469 155.769531 300.945312 155.859375 300.945312 155.945312 C 293.976562 161.890625 287.042969 167.871094 280.125 173.886719 C 272.996094 180.09375 265.886719 186.355469 258.808594 192.632812 C 254.851562 196.167969 250.890625 199.703125 246.929688 203.257812 C 246.910156 203.273438 246.558594 203.589844 246.453125 203.75 C 245.0625 205.839844 243.726562 207.988281 242.386719 210.132812 C 240.980469 212.402344 239.589844 214.6875 238.21875 216.992188 C 237.320312 218.488281 236.421875 219.964844 235.558594 221.476562 C 235.453125 221.652344 235.347656 221.84375 235.242188 222.023438 C 235.242188 222.039062 235.226562 222.058594 235.226562 222.074219 C 235.171875 222.179688 235.121094 222.339844 235.207031 222.445312 C 235.332031 222.585938 235.558594 222.460938 235.683594 222.410156 C 236.140625 222.199219 236.597656 222.003906 237.039062 221.792969 C 238.902344 220.949219 240.75 220.105469 242.601562 219.261719 C 246.3125 217.570312 250.027344 215.882812 253.777344 214.265625 C 254.390625 214 255.0625 213.773438 255.589844 213.351562 C 255.957031 213.050781 256.3125 212.71875 256.664062 212.382812 C 257.03125 212.050781 257.417969 211.714844 257.789062 211.382812 C 258.546875 210.714844 259.285156 210.0625 260.042969 209.394531 C 260.796875 208.726562 261.539062 208.074219 262.292969 207.40625 C 263.050781 206.738281 263.789062 206.085938 264.546875 205.417969 C 265.304688 204.75 266.042969 204.101562 266.800781 203.433594 C 267.558594 202.761719 268.296875 202.113281 269.054688 201.460938 C 269.808594 200.8125 270.550781 200.144531 271.304688 199.492188 C 272.0625 198.839844 272.820312 198.171875 273.558594 197.523438 C 274.316406 196.871094 275.074219 196.203125 275.8125 195.554688 C 276.570312 194.902344 277.324219 194.234375 278.082031 193.582031 C 278.839844 192.933594 279.597656 192.265625 280.351562 191.613281 C 281.109375 190.960938 281.867188 190.3125 282.625 189.644531 C 283.378906 188.992188 284.136719 188.34375 284.894531 187.675781 C 285.652344 187.003906 286.40625 186.371094 287.164062 185.722656 C 287.921875 185.070312 288.679688 184.421875 289.433594 183.769531 C 290.191406 183.117188 290.949219 182.46875 291.707031 181.816406 C 292.460938 181.167969 293.21875 180.515625 293.976562 179.867188 C 294.734375 179.214844 295.488281 178.5625 296.246094 177.914062 C 296.773438 177.472656 297.285156 177.015625 297.8125 176.578125 C 301.773438 173.199219 305.734375 169.839844 309.691406 166.5 C 309.730469 166.570312 309.78125 166.621094 309.871094 166.640625 C 309.941406 166.65625 310.011719 166.675781 310.082031 166.65625 C 310.152344 166.65625 310.222656 166.621094 310.292969 166.605469 C 310.660156 166.5 310.976562 166.269531 311.296875 166.058594 C 311.488281 165.9375 311.683594 165.796875 311.875 165.671875 C 312.316406 165.390625 312.738281 165.109375 313.179688 164.828125 C 313.25 164.777344 313.320312 164.742188 313.390625 164.6875 L 314.023438 164.175781 L 314.726562 163.613281 C 315.183594 163.226562 315.695312 162.859375 316.101562 162.3125 C 316.453125 161.875 316.644531 161.3125 316.699219 160.75 C 316.75 160.714844 316.804688 160.679688 316.855469 160.644531 C 317.632812 160.007812 318.40625 159.359375 319.144531 158.691406 C 319.53125 158.355469 319.902344 158.023438 320.269531 157.671875 C 320.640625 157.320312 321.0625 156.984375 321.378906 156.597656 C 321.980469 155.910156 322.121094 155.066406 322.066406 154.242188 Z M 268.984375 185.160156 C 276.039062 178.933594 283.132812 172.742188 290.261719 166.605469 C 294.273438 163.140625 298.304688 159.691406 302.335938 156.246094 C 302.496094 156.402344 302.6875 156.597656 302.863281 156.773438 L 303.410156 157.355469 C 303.832031 157.792969 304.238281 158.25 304.625 158.707031 C 304.359375 158.882812 304.132812 159.09375 304.042969 159.164062 C 289.855469 171.421875 275.671875 183.734375 261.398438 195.941406 C 257.347656 199.40625 253.285156 202.851562 249.199219 206.296875 C 249.253906 205.769531 249.234375 205.226562 249.023438 204.734375 C 248.832031 204.277344 248.476562 203.960938 248.054688 203.785156 C 254.992188 197.539062 261.976562 191.332031 268.984375 185.160156 Z M 305.027344 159.148438 C 305.207031 159.339844 305.382812 159.535156 305.539062 159.746094 C 306.121094 160.449219 306.703125 161.152344 307.246094 161.875 C 307.125 161.925781 307 162.015625 306.859375 162.15625 C 292.585938 174.5 278.3125 186.847656 264.039062 199.195312 C 260.128906 202.570312 256.238281 205.945312 252.332031 209.324219 C 252.367188 208.671875 252.140625 208.003906 251.644531 207.511719 C 251.101562 206.984375 250.363281 206.757812 249.621094 206.828125 C 263.929688 194.726562 278.117188 182.484375 292.285156 170.246094 C 296.371094 166.726562 300.433594 163.191406 304.519531 159.675781 C 304.570312 159.605469 304.816406 159.375 305.027344 159.148438 Z M 254.53125 213.085938 C 252.351562 214.035156 250.183594 214.988281 248.019531 215.972656 C 245.785156 216.972656 243.550781 217.992188 241.316406 219.015625 C 240.925781 218.027344 240.1875 217.203125 239.253906 216.691406 C 240.082031 215.320312 240.910156 213.949219 241.738281 212.578125 C 242.671875 211.066406 243.601562 209.535156 244.535156 208.039062 C 245.34375 206.738281 246.171875 205.453125 247 204.171875 C 247.703125 204.136719 248.320312 204.503906 248.511719 205.207031 C 248.601562 205.507812 248.617188 205.824219 248.582031 206.140625 C 248.566406 206.367188 248.53125 206.613281 248.476562 206.84375 C 248.441406 206.984375 248.390625 207.109375 248.355469 207.230469 C 248.335938 207.300781 248.335938 207.371094 248.320312 207.441406 C 248.320312 207.476562 248.335938 207.53125 248.355469 207.566406 C 248.40625 207.636719 248.496094 207.671875 248.582031 207.6875 C 248.652344 207.6875 248.742188 207.6875 248.8125 207.636719 C 249.570312 207.179688 250.625 207.320312 251.242188 207.96875 C 251.503906 208.25 251.664062 208.601562 251.699219 208.988281 C 251.734375 209.304688 251.699219 209.605469 251.59375 209.902344 C 251.574219 209.957031 251.558594 209.992188 251.539062 210.042969 C 251.503906 210.132812 251.453125 210.203125 251.398438 210.289062 C 251.382812 210.34375 251.363281 210.378906 251.328125 210.429688 C 251.3125 210.484375 251.277344 210.519531 251.292969 210.589844 C 251.3125 210.714844 251.417969 210.765625 251.523438 210.800781 C 251.628906 210.820312 251.769531 210.800781 251.859375 210.714844 C 252.507812 210.078125 253.6875 210.394531 254.25 210.996094 C 254.796875 211.59375 254.761719 212.367188 254.53125 213.085938 Z M 309.253906 165.480469 C 295.050781 177.457031 280.96875 189.589844 266.996094 201.847656 C 263.085938 205.277344 259.195312 208.726562 255.308594 212.171875 C 255.324219 211.558594 255.132812 210.960938 254.601562 210.464844 C 254.109375 210.007812 253.441406 209.761719 252.773438 209.796875 C 266.871094 197.609375 280.953125 185.421875 295.050781 173.21875 C 299.132812 169.683594 303.199219 166.164062 307.28125 162.628906 C 307.421875 162.507812 307.511719 162.402344 307.582031 162.3125 C 307.878906 162.71875 308.179688 163.121094 308.480469 163.542969 L 308.9375 164.195312 L 309.21875 164.601562 L 309.605469 165.128906 C 309.621094 165.144531 309.429688 165.339844 309.253906 165.480469 Z M 315.695312 161.59375 C 315.429688 162.03125 315.027344 162.402344 314.570312 162.769531 C 314.109375 163.140625 313.652344 163.507812 313.179688 163.878906 L 312.667969 164.265625 C 311.980469 164.917969 311.347656 165.339844 310.644531 165.972656 C 310.644531 165.867188 310.609375 165.761719 310.574219 165.671875 C 310.539062 165.550781 310.484375 165.425781 310.433594 165.320312 C 310.238281 164.917969 310.0625 164.496094 309.816406 164.105469 C 309.640625 163.824219 309.429688 163.542969 309.253906 163.28125 C 309.234375 163.261719 309.234375 163.246094 309.21875 163.226562 C 308.902344 162.789062 308.585938 162.332031 308.25 161.890625 C 307.597656 161.011719 306.914062 160.148438 306.207031 159.304688 C 305.503906 158.460938 304.78125 157.636719 304.027344 156.84375 C 303.640625 156.4375 303.285156 156.050781 302.863281 155.648438 C 302.742188 155.542969 302.601562 155.402344 302.40625 155.3125 C 302.917969 154.558594 303.53125 153.871094 304.183594 153.222656 C 304.589844 152.816406 305.027344 152.429688 305.46875 152.078125 C 305.925781 151.726562 306.402344 151.390625 306.878906 151.199219 C 307.335938 151.003906 307.863281 151.003906 308.355469 151.164062 C 308.847656 151.320312 309.324219 151.621094 309.765625 151.972656 C 310.203125 152.324219 310.609375 152.726562 311.011719 153.152344 C 311.417969 153.589844 311.824219 154.011719 312.210938 154.453125 C 312.984375 155.332031 313.742188 156.226562 314.445312 157.179688 C 314.796875 157.652344 315.113281 158.128906 315.394531 158.621094 C 315.660156 159.113281 315.890625 159.621094 315.960938 160.148438 C 316.046875 160.660156 315.941406 161.152344 315.695312 161.59375 Z M 320.871094 156 C 320.675781 156.613281 320.234375 156.984375 319.761719 157.425781 C 318.773438 158.355469 317.773438 159.21875 316.734375 160.078125 C 316.664062 159.5 316.453125 158.972656 316.207031 158.480469 C 315.925781 157.917969 315.570312 157.390625 315.21875 156.898438 C 314.5 155.910156 313.722656 154.960938 312.933594 154.066406 C 312.527344 153.609375 312.121094 153.167969 311.71875 152.726562 C 311.3125 152.289062 310.871094 151.832031 310.378906 151.445312 C 309.921875 151.074219 309.410156 150.722656 308.832031 150.496094 C 309.09375 150.25 309.359375 150.019531 309.640625 149.773438 C 309.710938 149.722656 309.78125 149.652344 309.851562 149.597656 C 309.886719 149.5625 309.921875 149.546875 309.941406 149.511719 C 309.957031 149.492188 309.976562 149.476562 309.992188 149.476562 C 309.992188 149.476562 310.027344 149.441406 310.046875 149.441406 C 310.0625 149.421875 310.097656 149.386719 310.117188 149.386719 C 310.152344 149.351562 310.1875 149.316406 310.222656 149.300781 C 310.292969 149.230469 310.363281 149.175781 310.433594 149.105469 C 311.03125 148.59375 311.648438 148.085938 312.261719 147.609375 C 312.597656 147.347656 312.933594 147.082031 313.285156 146.835938 C 314.394531 146.925781 315.464844 147.347656 316.433594 147.910156 C 317.5625 148.578125 318.617188 149.457031 319.410156 150.511719 C 319.832031 151.09375 320.183594 151.707031 320.464844 152.375 C 320.730469 152.992188 320.941406 153.644531 321.027344 154.3125 C 321.0625 154.820312 321.046875 155.453125 320.871094 156 Z M 304.625 155.136719 C 304.484375 155.261719 303.886719 155.734375 303.675781 155.488281 C 303.460938 155.242188 304.007812 154.734375 304.167969 154.59375 C 305.152344 153.730469 306.136719 152.867188 307.125 152.007812 C 307.265625 151.882812 307.863281 151.410156 308.074219 151.65625 C 308.285156 151.902344 307.738281 152.410156 307.582031 152.550781 C 306.59375 153.433594 305.609375 154.292969 304.625 155.136719 Z M 308.832031 153.695312 C 307.5625 154.769531 306.242188 155.769531 304.851562 156.722656 C 304.519531 156.949219 304.589844 156.792969 304.730469 156.578125 C 304.957031 156.226562 305.398438 155.929688 305.75 155.699219 C 306.753906 155.015625 307.722656 154.292969 308.65625 153.503906 C 308.726562 153.449219 309.304688 152.886719 309.464844 152.976562 C 309.550781 153.027344 308.882812 153.644531 308.832031 153.695312 Z M 310.097656 155.542969 C 308.988281 156.402344 307.878906 157.265625 306.773438 158.128906 C 306.648438 158.234375 306.191406 158.585938 306.085938 158.355469 C 305.980469 158.128906 306.71875 157.582031 306.859375 157.460938 C 307.96875 156.597656 309.078125 155.734375 310.1875 154.875 C 310.308594 154.769531 310.765625 154.417969 310.871094 154.644531 C 310.976562 154.875 310.238281 155.4375 310.097656 155.542969 Z M 311.980469 156.738281 C 310.714844 157.792969 309.429688 158.847656 308.160156 159.902344 C 308.019531 160.027344 307.457031 160.5 307.230469 160.289062 C 307.019531 160.078125 307.617188 159.535156 307.738281 159.429688 C 309.007812 158.375 310.292969 157.320312 311.558594 156.261719 C 311.699219 156.140625 312.261719 155.664062 312.492188 155.875 C 312.703125 156.085938 312.105469 156.632812 311.980469 156.738281 Z M 313.441406 159.078125 C 312.15625 160.027344 310.871094 160.960938 309.570312 161.910156 C 309.339844 162.085938 308.867188 162.277344 308.707031 161.925781 C 308.550781 161.574219 309.148438 161.082031 309.375 160.925781 C 310.660156 159.972656 311.945312 159.042969 313.25 158.09375 C 313.476562 157.917969 313.953125 157.722656 314.109375 158.074219 C 314.269531 158.425781 313.671875 158.917969 313.441406 159.078125 Z M 315.21875 160.609375 C 315.308594 160.765625 314.515625 161.363281 314.410156 161.453125 C 313.214844 162.4375 311.980469 163.367188 310.714844 164.246094 C 310.484375 164.40625 310.308594 164.582031 310.328125 164.316406 C 310.34375 164.035156 311.046875 163.578125 311.277344 163.421875 C 312.421875 162.628906 313.53125 161.785156 314.605469 160.890625 C 314.691406 160.820312 315.132812 160.449219 315.21875 160.609375 Z M 315.21875 160.609375 " fill-opacity="1" fill-rule="nonzero"/></g><g fill="#ffffff" fill-opacity="1"><g transform="translate(152.52083, 225.407695)"><g><path d="M 13.246094 -6 C 12.417969 -3.675781 11.265625 -2.269531 10.09375 -2.269531 C 9.640625 -2.269531 9.355469 -2.503906 9.355469 -3.027344 C 9.355469 -3.28125 9.40625 -3.570312 9.535156 -3.929688 L 12.832031 -13.625 C 12.902344 -13.859375 12.941406 -14.058594 12.941406 -14.253906 C 12.941406 -15.101562 12.292969 -15.644531 11.589844 -15.644531 C 10.992188 -15.644531 10.363281 -15.265625 10.039062 -14.347656 C 9.496094 -12.796875 8.8125 -10.632812 8.289062 -9.082031 L 5.171875 -9.082031 L 6.722656 -13.605469 C 6.8125 -13.878906 6.847656 -14.113281 6.847656 -14.347656 C 6.847656 -15.175781 6.253906 -15.644531 5.605469 -15.644531 C 4.972656 -15.644531 4.269531 -15.210938 4 -14.273438 L 2.179688 -9.082031 L 1.386719 -9.082031 C 0.289062 -9.082031 -0.164062 -8.507812 -0.164062 -7.929688 C -0.164062 -7.371094 0.269531 -6.8125 0.957031 -6.8125 L 1.386719 -6.8125 L -0.324219 -1.820312 C -0.398438 -1.621094 -0.433594 -1.421875 -0.433594 -1.261719 C -0.433594 -0.488281 0.253906 0 0.972656 0 C 1.566406 0 2.199219 -0.34375 2.449219 -1.152344 C 3.007812 -2.8125 3.820312 -5.15625 4.378906 -6.8125 C 5.515625 -6.8125 6.453125 -6.832031 7.535156 -6.832031 C 7.191406 -5.839844 6.992188 -5.316406 6.667969 -4.378906 C 6.523438 -3.929688 6.453125 -3.476562 6.453125 -3.0625 C 6.453125 -1.152344 8.003906 0 9.875 0 C 12.578125 0 14.363281 -2.289062 15.425781 -5.480469 C 15.464844 -5.585938 15.5 -5.804688 15.5 -5.894531 C 15.5 -6.453125 14.957031 -6.757812 14.398438 -6.757812 C 13.894531 -6.757812 13.390625 -6.523438 13.246094 -6 Z M 13.246094 -6 "/></g></g></g><g fill="#ffffff" fill-opacity="1"><g transform="translate(164.894902, 225.407695)"><g><path d="M 9.121094 -5.082031 C 8.328125 -2.992188 6.433594 -2.144531 4.902344 -2.144531 C 3.585938 -2.144531 2.757812 -2.777344 2.757812 -3.605469 C 2.757812 -3.765625 2.777344 -3.929688 2.847656 -4.109375 L 2.992188 -4.453125 C 3.515625 -4.128906 4.164062 -3.910156 4.882812 -3.910156 C 6.523438 -3.910156 7.964844 -4.9375 8.453125 -6.558594 C 8.542969 -6.902344 8.597656 -7.246094 8.597656 -7.550781 C 8.597656 -9.261719 7.246094 -10.578125 5.207031 -10.578125 C 3.605469 -10.578125 2.035156 -9.640625 1.40625 -7.839844 L 0.34375 -4.757812 C 0.199219 -4.324219 0.109375 -3.894531 0.109375 -3.476562 C 0.109375 -1.332031 2.125 0 4.757812 0 C 7.261719 0 10.109375 -1.226562 11.300781 -4.667969 C 11.355469 -4.8125 11.371094 -4.9375 11.371094 -5.046875 C 11.371094 -5.605469 10.867188 -5.910156 10.328125 -5.910156 C 9.820312 -5.910156 9.28125 -5.640625 9.121094 -5.082031 Z M 5.15625 -8.453125 C 5.660156 -8.453125 5.984375 -8.039062 5.984375 -7.515625 C 5.984375 -7.371094 5.964844 -7.226562 5.910156 -7.082031 C 5.730469 -6.488281 5.191406 -6.273438 4.648438 -6.273438 C 4.308594 -6.273438 3.964844 -6.34375 3.710938 -6.488281 L 4.089844 -7.570312 C 4.289062 -8.128906 4.738281 -8.453125 5.15625 -8.453125 Z M 5.15625 -8.453125 "/></g></g></g><g fill="#ffffff" fill-opacity="1"><g transform="translate(173.432468, 225.407695)"><g><path d="M 9.136719 -5.226562 C 8.453125 -3.460938 7.535156 -2.144531 6.777344 -2.144531 C 6.523438 -2.144531 6.398438 -2.378906 6.398438 -2.632812 C 6.398438 -2.738281 6.414062 -2.882812 6.46875 -3.027344 L 7.535156 -5.984375 C 7.640625 -6.34375 7.714844 -6.667969 7.714844 -6.976562 C 7.714844 -8.6875 5.550781 -9.40625 4.542969 -9.714844 C 4.597656 -9.859375 4.613281 -10.019531 4.613281 -10.164062 C 4.613281 -10.992188 3.875 -11.695312 3.0625 -11.695312 C 2 -11.695312 1.371094 -10.757812 1.371094 -9.730469 C 1.371094 -9.28125 1.53125 -8.8125 1.820312 -8.453125 L 0.503906 -4.902344 C 0.46875 -4.757812 0.449219 -4.613281 0.449219 -4.503906 C 0.449219 -3.910156 0.917969 -3.605469 1.421875 -3.605469 C 1.929688 -3.605469 2.449219 -3.894531 2.667969 -4.46875 L 3.675781 -7.171875 C 4.179688 -7.011719 4.847656 -6.882812 4.847656 -6.273438 C 4.847656 -6.183594 4.828125 -6.074219 4.792969 -5.949219 L 4 -3.75 C 3.855469 -3.335938 3.785156 -2.957031 3.785156 -2.59375 C 3.785156 -1.027344 5.027344 0 6.523438 0 C 8.488281 0 10.273438 -1.75 11.335938 -4.792969 C 11.371094 -4.902344 11.390625 -4.992188 11.390625 -5.082031 C 11.390625 -5.621094 10.796875 -5.984375 10.21875 -5.984375 C 9.75 -5.984375 9.300781 -5.765625 9.136719 -5.226562 Z M 9.136719 -5.226562 "/></g></g></g><g fill="#ffffff" fill-opacity="1"><g transform="translate(181.952022, 225.407695)"><g><path d="M 9.121094 -5.082031 C 8.328125 -2.992188 6.433594 -2.144531 4.902344 -2.144531 C 3.585938 -2.144531 2.757812 -2.777344 2.757812 -3.605469 C 2.757812 -3.765625 2.777344 -3.929688 2.847656 -4.109375 L 2.992188 -4.453125 C 3.515625 -4.128906 4.164062 -3.910156 4.882812 -3.910156 C 6.523438 -3.910156 7.964844 -4.9375 8.453125 -6.558594 C 8.542969 -6.902344 8.597656 -7.246094 8.597656 -7.550781 C 8.597656 -9.261719 7.246094 -10.578125 5.207031 -10.578125 C 3.605469 -10.578125 2.035156 -9.640625 1.40625 -7.839844 L 0.34375 -4.757812 C 0.199219 -4.324219 0.109375 -3.894531 0.109375 -3.476562 C 0.109375 -1.332031 2.125 0 4.757812 0 C 7.261719 0 10.109375 -1.226562 11.300781 -4.667969 C 11.355469 -4.8125 11.371094 -4.9375 11.371094 -5.046875 C 11.371094 -5.605469 10.867188 -5.910156 10.328125 -5.910156 C 9.820312 -5.910156 9.28125 -5.640625 9.121094 -5.082031 Z M 5.15625 -8.453125 C 5.660156 -8.453125 5.984375 -8.039062 5.984375 -7.515625 C 5.984375 -7.371094 5.964844 -7.226562 5.910156 -7.082031 C 5.730469 -6.488281 5.191406 -6.273438 4.648438 -6.273438 C 4.308594 -6.273438 3.964844 -6.34375 3.710938 -6.488281 L 4.089844 -7.570312 C 4.289062 -8.128906 4.738281 -8.453125 5.15625 -8.453125 Z M 5.15625 -8.453125 "/></g></g></g><g fill="#ffffff" fill-opacity="1"><g transform="translate(190.489589, 225.407695)"><g/></g></g><g fill="#ffffff" fill-opacity="1"><g transform="translate(197.370074, 225.407695)"><g><path d="M 3.785156 -14.253906 L -0.46875 -2.035156 C -0.558594 -1.765625 -0.59375 -1.53125 -0.59375 -1.296875 C -0.59375 -0.46875 0 0 0.648438 0 C 1.28125 0 1.929688 -0.449219 2.253906 -1.371094 L 6.507812 -13.589844 C 6.597656 -13.859375 6.632812 -14.09375 6.632812 -14.328125 C 6.632812 -15.15625 6.039062 -15.625 5.390625 -15.625 C 4.757812 -15.625 4.054688 -15.191406 3.785156 -14.253906 Z M 3.785156 -14.253906 "/></g></g></g><g fill="#ffffff" fill-opacity="1"><g transform="translate(202.089148, 225.407695)"><g/></g></g><g fill="#ffffff" fill-opacity="1"><g transform="translate(208.969633, 225.407695)"><g><path d="M 12.472656 -5.949219 C 11.640625 -3.695312 10.472656 -2.269531 9.300781 -2.269531 C 8.847656 -2.269531 8.542969 -2.523438 8.542969 -3.007812 C 8.542969 -3.242188 8.613281 -3.585938 8.742188 -3.929688 L 12.253906 -13.75 C 12.363281 -14.058594 12.417969 -14.328125 12.417969 -14.5625 C 12.417969 -15.390625 11.804688 -15.789062 11.136719 -15.789062 C 10.433594 -15.789062 9.660156 -15.375 9.371094 -14.582031 C 8.8125 -15.390625 7.625 -15.644531 6.832031 -15.644531 C 5.0625 -15.644531 3.316406 -14.632812 2.703125 -12.902344 L -0.234375 -4.632812 C -0.398438 -4.179688 -0.488281 -3.710938 -0.488281 -3.28125 C -0.488281 -1.371094 1.046875 0 3.046875 0 C 4.109375 0 5.28125 -0.46875 6.183594 -1.351562 C 6.792969 -0.46875 7.875 0 9.082031 0 C 11.785156 0 13.570312 -2.234375 14.652344 -5.496094 C 14.707031 -5.640625 14.722656 -5.785156 14.722656 -5.910156 C 14.722656 -6.523438 14.21875 -6.882812 13.660156 -6.882812 C 13.175781 -6.882812 12.667969 -6.597656 12.472656 -5.949219 Z M 3.660156 -2.722656 C 2.992188 -2.722656 2.578125 -3.191406 2.578125 -3.839844 C 2.578125 -4.054688 2.632812 -4.308594 2.722656 -4.578125 L 5.207031 -11.660156 C 5.515625 -12.507812 6.144531 -13.03125 6.867188 -13.03125 C 7.675781 -13.03125 8.398438 -12.363281 8.398438 -11.625 C 8.398438 -11.5 8.363281 -11.371094 8.328125 -11.246094 L 6.164062 -5.171875 C 5.460938 -3.191406 4.578125 -2.722656 3.660156 -2.722656 Z M 3.660156 -2.722656 "/></g></g></g><g fill="#ffffff" fill-opacity="1"><g transform="translate(220.55119, 225.407695)"><g><path d="M 15.96875 -6.039062 C 15.480469 -6.039062 14.957031 -5.765625 14.777344 -5.191406 C 13.984375 -3.027344 12.996094 -2.144531 12.148438 -2.144531 C 11.785156 -2.144531 11.605469 -2.359375 11.605469 -2.632812 C 11.605469 -2.722656 11.605469 -2.8125 11.640625 -2.882812 L 13.175781 -7.082031 C 13.28125 -7.425781 13.355469 -7.785156 13.355469 -8.09375 C 13.355469 -9.625 12.003906 -10.578125 10.363281 -10.578125 C 9.714844 -10.578125 8.777344 -10.417969 7.949219 -9.75 C 7.570312 -10.183594 6.976562 -10.578125 5.929688 -10.578125 C 5.191406 -10.578125 4.757812 -10.363281 4.433594 -10.164062 C 4.234375 -10.433594 3.839844 -10.578125 3.441406 -10.578125 C 2.882812 -10.578125 2.308594 -10.308594 2.089844 -9.785156 L -0.792969 -1.476562 C -0.847656 -1.316406 -0.863281 -1.171875 -0.863281 -1.046875 C -0.863281 -0.378906 -0.289062 0 0.34375 0 C 0.957031 0 1.566406 -0.359375 1.820312 -1.082031 L 3.964844 -7.246094 C 4.34375 -8.019531 4.921875 -8.453125 5.460938 -8.453125 C 5.820312 -8.453125 6.074219 -8.253906 6.074219 -7.929688 C 6.074219 -7.839844 6.054688 -7.714844 6 -7.585938 L 3.894531 -1.730469 C 3.804688 -1.496094 3.75 -1.261719 3.75 -1.0625 C 3.75 -0.378906 4.289062 0 4.902344 0 C 5.496094 0 6.144531 -0.359375 6.414062 -1.136719 L 8.488281 -6.992188 C 8.8125 -7.894531 9.496094 -8.453125 10.09375 -8.453125 C 10.417969 -8.453125 10.667969 -8.234375 10.667969 -7.894531 C 10.667969 -7.785156 10.652344 -7.660156 10.597656 -7.496094 L 9.226562 -3.765625 C 9.082031 -3.351562 9.011719 -2.9375 9.011719 -2.558594 C 9.011719 -0.917969 10.363281 0 11.949219 0 C 13.734375 0 15.714844 -1.152344 16.960938 -4.757812 C 16.996094 -4.882812 17.03125 -5.011719 17.03125 -5.136719 C 17.03125 -5.714844 16.507812 -6.039062 15.96875 -6.039062 Z M 15.96875 -6.039062 "/></g></g></g></svg>